<?xml version="1.0" encoding="UTF-8" standalone="no"?>
<svg
   xmlns:dc="http://purl.org/dc/elements/1.1/"
   xmlns:cc="http://creativecommons.org/ns#"
   xmlns:rdf="http://www.w3.org/1999/02/22-rdf-syntax-ns#"
   xmlns:svg="http://www.w3.org/2000/svg"
   xmlns="http://www.w3.org/2000/svg"
   xmlns:xlink="http://www.w3.org/1999/xlink"
   id="svg8"
   version="1.1"
   viewBox="0 0 195.79166 73.554169"
   height="278"
   width="740">
  <defs
     id="defs2">
    <linearGradient
       id="linearGradient1147">
      <stop
         id="stop1143"
         offset="0"
         style="stop-color:#0b6391;stop-opacity:1" />
      <stop
         id="stop1145"
         offset="1"
         style="stop-color:#09233c;stop-opacity:1" />
    </linearGradient>
    <radialGradient
       gradientUnits="userSpaceOnUse"
       gradientTransform="matrix(1.0441985,-0.00110276,7.5337535e-4,0.61572349,-6.5403303,97.786778)"
       r="104.10148"
       fy="263.99219"
       fx="99.825165"
       cy="263.99219"
       cx="99.825165"
       id="radialGradient1149"
       xlink:href="#linearGradient1147" />
  </defs>
  <metadata
     id="metadata5">
    <rdf:RDF>
      <cc:Work
         rdf:about="">
        <dc:format>image/svg+xml</dc:format>
        <dc:type
           rdf:resource="http://purl.org/dc/dcmitype/StillImage" />
        <dc:title></dc:title>
      </cc:Work>
    </rdf:RDF>
  </metadata>
  <g
     transform="translate(0,-223.44582)"
     id="layer1">
    <rect
       y="223.44582"
       x="0"
       height="73.554169"
       width="195.79167"
       id="rect1141"
       style="fill:url(#radialGradient1149);fill-opacity:1;stroke:none;stroke-width:1.09399998;stroke-linecap:butt;stroke-linejoin:round;stroke-miterlimit:4;stroke-dasharray:none;stroke-opacity:1" />
    <g
       style="stroke-width:0.50834572"
       transform="matrix(0.5204791,0,0,0.5204791,44.078172,241.87602)"
       id="g953">
      <g
         style="stroke-width:0.50834572"
         id="g935">
	<path
   style="fill:#ffffff;stroke-width:0.50834572"
   class="st0"
   d="M 0,11.1 H 14.7 L 22.3,33.2 30,11.1 h 14.5 l -16,39.7 H 16 Z"
   id="path927" />

	<path
   style="fill:#ffffff;stroke-width:0.50834572"
   class="st0"
   d="m 38.3,35.3 v -0.1 c 0,-8.7 7.2,-16.1 17.3,-16.1 10.1,0 17.2,7.3 17.2,16 v 0.1 c 0,8.7 -7.2,16.1 -17.3,16.1 -10.1,-0.1 -17.2,-7.4 -17.2,-16 z m 22.3,0 v -0.1 c 0,-3 -2.2,-5.5 -5.1,-5.5 -2.9,0 -4.9,2.4 -4.9,5.3 v 0.1 c 0,3 2.2,5.5 5.1,5.5 2.8,0 4.9,-2.4 4.9,-5.3 z"
   id="path929" />

	<path
   style="fill:#ffffff;stroke-width:0.50834572"
   class="st0"
   d="M 77.2,40.2 V 29.6 h -3.6 v -9.8 h 3.6 V 12.1 H 90 v 7.7 h 7.1 v 9.8 H 90 v 7.8 c 0,2.3 1.1,3.1 3.1,3.1 1.2,0 2.5,-0.3 3.9,-1 v 9.8 C 95,50.4 91.9,51 88.8,51 81.3,51.2 77.2,47.7 77.2,40.2 Z"
   id="path931" />

	<path
   style="fill:#ffffff;stroke-width:0.50834572"
   class="st0"
   d="m 98.7,35.3 v -0.1 c 0,-9.2 6.6,-16.1 15.8,-16.1 10.9,0 16,7.6 16,16.9 0,0.7 0,1.5 -0.1,2.1 h -19.7 c 0.9,2.7 3,4.1 5.8,4.1 2.3,0 4.2,-1.1 6.2,-3.1 l 6.9,5.5 c -3,3.9 -7.4,6.7 -14,6.7 -10.1,-0.1 -16.9,-6.4 -16.9,-16 z m 20.1,-2.8 c -0.3,-2.9 -2,-4.6 -4.3,-4.6 -2.1,0 -3.7,1.8 -4,4.6 z"
   id="path933" />

</g>
      <path
         style="fill:#ffffff;stroke-width:0.50834572"
         class="st0"
         d="m 171.6,0 c -19.5,0 -35.2,15.8 -35.2,35.2 0,4.9 1,9.6 2.8,13.9 l -2.6,12.2 12,0.6 c 6.2,5.3 14.2,8.6 23,8.6 19.5,0 35.2,-15.8 35.2,-35.2 C 206.9,15.8 191.1,0 171.6,0 Z m -10,52.7 H 150.5 V 19.5 h 11.1 z m 33.3,-23.8 h -9.8 V 52.7 H 174 V 28.9 h -9.8 v -9.4 h 30.7 z"
         id="path937" />
    </g>
    <text
       id="text957"
       y="276.71887"
       x="54.031582"
       style="font-style:normal;font-weight:normal;font-size:9.32160854px;line-height:1.25;font-family:sans-serif;letter-spacing:0px;word-spacing:0px;fill:#000000;fill-opacity:1;stroke:none;stroke-width:0.26458329"
       xml:space="preserve"><tspan
         style="font-style:normal;font-variant:normal;font-weight:normal;font-stretch:normal;font-family:Ubuntu;-inkscape-font-specification:Ubuntu;letter-spacing:2.69578409px;fill:#ffffff;stroke-width:0.26458329"
         y="276.71887"
         x="54.031582"
         id="tspan955">voteit.se</tspan></text>
  </g>
  <style
     type="text/css"
     id="style925">
	.st0{fill:#FFFFFF;}
</style>
</svg>
